<?xml version="1.0" encoding="utf-8"?>
<!-- Generator: Adobe Illustrator 19.1.0, SVG Export Plug-In . SVG Version: 6.00 Build 0)  -->
<svg version="1.1" id="Layer_1" xmlns="http://www.w3.org/2000/svg" xmlns:xlink="http://www.w3.org/1999/xlink" x="0px" y="0px"
	 viewBox="0 0 25 32" style="enable-background:new 0 0 25 32;" xml:space="preserve">
<style type="text/css">
	.st0{clip-path:url(#SVGID_2_);fill:#FFFFFF;}
	.st1{clip-path:url(#SVGID_2_);fill:none;stroke:#FFFFFF;stroke-width:0.565;}
	.st2{fill:#FFFFFF;}
	.st3{clip-path:url(#SVGID_4_);fill:#FFFFFF;}
</style>
<g>
	<g>
		<defs>
			<rect id="SVGID_1_" width="25" height="32"/>
		</defs>
		<clipPath id="SVGID_2_">
			<use xlink:href="#SVGID_1_"  style="overflow:visible;"/>
		</clipPath>
		<path class="st0" d="M24.5,8.5V9c0,4.9,0,9.9,0,14.8c0,0.4-0.1,0.5-0.5,0.6c-2.5,0.7-4.9,0.5-7.1-0.9c-1.3-0.8-2.6-0.8-4-0.2
			c-0.2,0.1-0.5,0.1-0.7,0c-1.4-0.6-2.8-0.5-4.1,0.3c-2.3,1.4-4.7,1.6-7.3,0.8c-0.3-0.1-0.3-0.3-0.3-0.5c0-2.5,0-5,0-7.6V9.1V8.5
			C1,8.7,1.3,8.8,1.7,8.9c2.2,0.5,4.2,0.2,6.1-1C9.2,7,10.6,7,12.1,7.5c0.2,0.1,0.5,0.1,0.7,0c1.5-0.5,3-0.4,4.4,0.4
			c2.1,1.3,4.3,1.5,6.7,0.8C24.1,8.6,24.2,8.6,24.5,8.5 M1.3,9.6c0,0.1,0,0.2,0,0.3c0,4.5,0,9,0,13.4c0,0.3,0.1,0.4,0.4,0.5
			c2.1,0.5,4.2,0.2,6-0.9c1-0.6,2.1-0.9,3.3-0.7c0.4,0,0.7,0.1,1.1,0.2c0-0.1,0-0.2,0-0.2c0-4.5,0-9,0-13.5c0-0.3-0.1-0.3-0.3-0.4
			c-1.3-0.4-2.6-0.3-3.7,0.4c-1.5,1-3.2,1.4-5,1.3C2.5,9.8,1.9,9.7,1.3,9.6 M23.7,9.6c-0.2,0-0.3,0-0.4,0.1
			c-2.2,0.4-4.3,0.1-6.3-1.1c-1.1-0.7-2.3-0.8-3.6-0.5c-0.3,0.1-0.5,0.3-0.5,0.6c0,4.4,0,8.8,0,13.1v0.5c0.2,0,0.3-0.1,0.4-0.1
			c1.4-0.3,2.7-0.2,4,0.5c0.8,0.4,1.7,0.8,2.6,1c1.3,0.3,2.6,0.2,3.8-0.2V9.6z"/>
		<path class="st1" d="M24.5,8.5V9c0,4.9,0,9.9,0,14.8c0,0.4-0.1,0.5-0.5,0.6c-2.5,0.7-4.9,0.5-7.1-0.9c-1.3-0.8-2.6-0.8-4-0.2
			c-0.2,0.1-0.5,0.1-0.7,0c-1.4-0.6-2.8-0.5-4.1,0.3c-2.3,1.4-4.7,1.6-7.3,0.8c-0.3-0.1-0.3-0.3-0.3-0.5c0-2.5,0-5,0-7.6V9.1V8.5
			C1,8.7,1.3,8.8,1.7,8.9c2.2,0.5,4.2,0.2,6.1-1C9.2,7,10.6,7,12.1,7.5c0.2,0.1,0.5,0.1,0.7,0c1.5-0.5,3-0.4,4.4,0.4
			c2.1,1.3,4.3,1.5,6.7,0.8C24.1,8.6,24.2,8.6,24.5,8.5z M1.3,9.6c0,0.1,0,0.2,0,0.3c0,4.5,0,9,0,13.4c0,0.3,0.1,0.4,0.4,0.5
			c2.1,0.5,4.2,0.2,6-0.9c1-0.6,2.1-0.9,3.3-0.7c0.4,0,0.7,0.1,1.1,0.2c0-0.1,0-0.2,0-0.2c0-4.5,0-9,0-13.5c0-0.3-0.1-0.3-0.3-0.4
			c-1.3-0.4-2.6-0.3-3.7,0.4c-1.5,1-3.2,1.4-5,1.3C2.5,9.8,1.9,9.7,1.3,9.6z M23.7,9.6c-0.2,0-0.3,0-0.4,0.1
			c-2.2,0.4-4.3,0.1-6.3-1.1c-1.1-0.7-2.3-0.8-3.6-0.5c-0.3,0.1-0.5,0.3-0.5,0.6c0,4.4,0,8.8,0,13.1v0.5c0.2,0,0.3-0.1,0.4-0.1
			c1.4-0.3,2.7-0.2,4,0.5c0.8,0.4,1.7,0.8,2.6,1c1.3,0.3,2.6,0.2,3.8-0.2V9.6z"/>
		<path class="st0" d="M16,15.8c-0.1-0.8-0.1-0.8,0.6-0.8c1.1,0,2.2,0,3.4,0v0.5c0,1.3,0,2.6,0,3.8c0,0.3,0.1,0.5,0.5,0.5
			c0.2,0,0.5,0,0.7,0v0.8c-0.1,0-0.2,0-0.3,0c-1.5,0-3,0-4.5,0c-0.3,0-0.4-0.1-0.4-0.4c0-0.3,0.1-0.4,0.4-0.4c0.8,0,0.8,0,0.8-0.8
			c0-1,0-1.9,0-2.9c0-0.3-0.1-0.5-0.4-0.4C16.5,15.8,16.2,15.8,16,15.8"/>
		<path class="st0" d="M20,12.7c0,0.8-0.6,1.4-1.4,1.4c-0.8,0-1.4-0.6-1.4-1.4c0-0.8,0.6-1.4,1.4-1.4C19.3,11.3,20,11.9,20,12.7"/>
	</g>
</g>
</svg>
