<?xml version="1.0" encoding="utf-8"?>
<!-- Generator: Adobe Illustrator 19.1.0, SVG Export Plug-In . SVG Version: 6.00 Build 0)  -->
<svg version="1.1" id="Layer_1" xmlns="http://www.w3.org/2000/svg" xmlns:xlink="http://www.w3.org/1999/xlink" x="0px" y="0px"
	 viewBox="0 0 21 32" style="enable-background:new 0 0 21 32;" xml:space="preserve">
<style type="text/css">
	.st0{clip-path:url(#SVGID_2_);fill:#FFFFFF;}
	.st1{clip-path:url(#SVGID_2_);fill:none;stroke:#FFFFFF;stroke-width:0.565;}
	.st2{fill:#FFFFFF;}
	.st3{clip-path:url(#SVGID_4_);fill:#FFFFFF;}
</style>
<g>
	<path class="st2" d="M11.3,19.9H9.8l-0.3-7.7h2L11.3,19.9z M9.6,20.8h1.9v2H9.6V20.8z"/>
	<g>
		<defs>
			<rect id="SVGID_3_" x="0" y="0" width="21" height="32"/>
		</defs>
		<clipPath id="SVGID_2_">
			<use xlink:href="#SVGID_3_"  style="overflow:visible;"/>
		</clipPath>
		<path class="st0" d="M10.5,7c-0.2,0-0.4,0.1-0.5,0.3L0.3,24.1c-0.1,0.2-0.1,0.4,0,0.6C0.4,24.9,0.6,25,0.8,25h19.4
			c0.2,0,0.4-0.1,0.5-0.3c0.1-0.2,0.1-0.4,0-0.6L11,7.3C10.9,7.1,10.7,7,10.5,7 M10.5,8.8c0.9,1.5,7.8,13.5,8.7,15H1.8
			C2.7,22.3,9.6,10.3,10.5,8.8"/>
	</g>
</g>
</svg>
