<?xml version="1.0" encoding="utf-8"?>
<!-- Generator: Adobe Illustrator 19.1.0, SVG Export Plug-In . SVG Version: 6.00 Build 0)  -->
<svg version="1.1" id="Layer_1" xmlns="http://www.w3.org/2000/svg" xmlns:xlink="http://www.w3.org/1999/xlink" x="0px" y="0px"
	 viewBox="0 0 28 16" style="enable-background:new 0 0 28 16;" xml:space="preserve">
<style type="text/css">
	.st0{clip-path:url(#SVGID_2_);fill:#FFFFFF;}
	.st1{clip-path:url(#SVGID_2_);fill:none;stroke:#FFFFFF;stroke-width:0.565;}
	.st2{fill:#FFFFFF;}
	.st3{clip-path:url(#SVGID_4_);fill:#FFFFFF;}
</style>
<g>
	<path d="M14,6c1.1,0,2,0.9,2,2s-0.9,2-2,2s-2-0.9-2-2S12.9,6,14,6 M14,0C6,0,0,8,0,8c0,0,0,0,0,0c0,0,6,8,14,8c8,0,14-8,14-8
		c0,0-0.1,0-0.3,0C27.9,8,28,8,28,8C28,8,23,0,14,0L14,0z M14,14c-5.2,0-9.1-4-11-6c1.9-2,5.8-6,11-6c5.8,0,9.3,4,11,6
		C23.1,10,19.2,14,14,14L14,14z M14,3c-2.8,0-5,2.2-5,5s2.2,5,5,5s5-2.2,5-5S16.8,3,14,3L14,3z"/>
</g>
</svg>
